<?xml version="1.0" encoding="utf-8"?>
<!-- Generator: Adobe Illustrator 19.0.0, SVG Export Plug-In . SVG Version: 6.00 Build 0)  -->
<svg version="1.1" id="Capa_1" xmlns="http://www.w3.org/2000/svg" xmlns:xlink="http://www.w3.org/1999/xlink" x="0px" y="0px"
	 viewBox="337 225 50 50" style="enable-background:new 337 225 50 50;" xml:space="preserve">
<style type="text/css">
	.st0{fill:#000002;}
</style>
<g id="XMLID_247_">
	<path id="XMLID_40_" class="st0" d="M362,226.7c-12.7,0-23,10.3-23,23c0,12.7,10.3,23,23,23c12.7,0,23-10.3,23-23
		C385,237,374.7,226.7,362,226.7z M362,271.2c-11.8,0-21.5-9.6-21.5-21.5c0-11.8,9.6-21.5,21.5-21.5c11.8,0,21.5,9.6,21.5,21.5
		C383.4,261.5,373.8,271.2,362,271.2z"/>
	<path id="XMLID_231_" class="st0" d="M362.8,249.2v-11c2.7,0.4,4.6,2.7,4.6,5.4c0,0.5,0.4,0.9,0.9,0.9s0.9-0.4,0.9-0.9
		c0-3.7-2.7-6.8-6.4-7.2v-2.5c0-0.5-0.4-0.9-0.9-0.9s-0.9,0.4-0.9,0.9v2.5c-3.7,0.4-6.4,3.5-6.4,7.2c0,3.7,2.7,6.8,6.4,7.2v11
		c-2.7-0.4-4.6-2.7-4.6-5.4c0-0.5-0.4-0.9-0.9-0.9s-0.9,0.4-0.9,0.9c0,3.7,2.7,6.8,6.4,7.2v2.5c0,0.5,0.4,0.9,0.9,0.9
		s0.9-0.4,0.9-0.9v-2.5c3.7-0.4,6.4-3.5,6.4-7.2C369.2,252.7,366.5,249.6,362.8,249.2z M367.5,256.4c0,2.7-2,5-4.6,5.4V251
		C365.5,251.4,367.5,253.7,367.5,256.4z M361.1,238.2v10.9c-2.7-0.4-4.6-2.7-4.6-5.4S358.4,238.6,361.1,238.2z"/>
</g>
</svg>
