<?xml version="1.0" encoding="utf-8"?>
<!-- Generator: Adobe Illustrator 19.0.0, SVG Export Plug-In . SVG Version: 6.00 Build 0)  -->
<svg version="1.1" id="Capa_1" xmlns="http://www.w3.org/2000/svg" xmlns:xlink="http://www.w3.org/1999/xlink" x="0px" y="0px"
	 viewBox="337 225 50 50" style="enable-background:new 337 225 50 50;" xml:space="preserve">
<style type="text/css">
	.st0{fill:#000002;}
</style>
<g id="XMLID_188_">
	<g id="XMLID_189_">
		<g id="XMLID_190_">
			<path id="XMLID_200_" class="st0" d="M383.2,258.7c0,0,0-0.1,0.1-0.1c1.1-2.7,1.8-5.7,1.8-8.9c0-12.7-10.3-23-23-23
				s-23,10.3-23,23c0,3.1,0.6,6.1,1.8,8.9c0,0.1,0,0.1,0.1,0.2c2,4.7,5.5,8.6,10,11.1c0,0,0.1,0,0.1,0.1c1,0.6,2,1,3.1,1.4
				c0,0,0.1,0,0.1,0.1c0.1,0,0.2,0.1,0.4,0.1c0.1,0,0.2,0.1,0.3,0.1c0,0,0,0,0.1,0c1.5,0.5,3,0.8,4.5,1c0,0,0,0,0,0
				c0.1,0,0.2,0,0.3,0c0.1,0,0.1,0,0.2,0c0.1,0,0.2,0,0.4,0c0.1,0,0.2,0,0.3,0c0.1,0,0.1,0,0.2,0c0.2,0,0.3,0,0.5,0c0,0,0.1,0,0.1,0
				c0.2,0,0.4,0,0.5,0s0.4,0,0.5,0c0,0,0.1,0,0.1,0c0.2,0,0.3,0,0.5,0c0.1,0,0.1,0,0.2,0c0.1,0,0.2,0,0.3,0c0.1,0,0.2,0,0.4,0
				c0.1,0,0.1,0,0.2,0c0.1,0,0.2,0,0.3,0c0,0,0,0,0,0c1.6-0.2,3.1-0.5,4.5-1c0,0,0,0,0.1,0c0.1,0,0.2-0.1,0.3-0.1
				c0.1,0,0.3-0.1,0.4-0.1c0,0,0.1,0,0.1-0.1c1.1-0.4,2.1-0.9,3.1-1.4c0,0,0.1,0,0.1-0.1C377.6,267.3,381.1,263.4,383.2,258.7z
				 M362,228.2c11.8,0,21.5,9.6,21.5,21.5c0,2.5-0.4,4.8-1.2,7c-0.6-0.8-1.4-1.4-2.2-1.9c-0.2-0.1-0.6-0.1-0.8,0
				c-2.1,1.3-4.8,1.3-6.9,0c-0.2-0.2-0.6-0.2-0.8,0c-0.4,0.2-0.8,0.5-1.2,0.9c-0.7-0.8-1.6-1.5-2.6-2c-0.2-0.1-0.6-0.1-0.8,0
				c-1.4,0.9-3.1,1.4-5,1.4s-3.5-0.5-5-1.4c-0.2-0.2-0.6-0.2-0.8,0c-1,0.6-1.8,1.3-2.6,2c-0.4-0.3-0.8-0.6-1.2-0.9
				c-0.3-0.1-0.6-0.1-0.8,0c-2.1,1.3-4.8,1.3-6.9,0c-0.2-0.2-0.6-0.2-0.8,0c-0.9,0.5-1.6,1.1-2.2,1.9c-0.8-2.2-1.2-4.6-1.2-7
				C340.5,237.9,350.2,228.2,362,228.2z M372,268.7c-0.5,0.3-1,0.5-1.6,0.8c0,0,0,0,0,0c-0.1,0-0.2,0.1-0.3,0.1
				c-0.1,0-0.2,0.1-0.3,0.1c-0.1,0-0.2,0.1-0.2,0.1c-0.2,0.1-0.3,0.1-0.5,0.2c0,0,0,0-0.1,0c-1.6,0.6-3.3,0.9-5,1.1c0,0-0.1,0-0.1,0
				c-0.2,0-0.3,0-0.5,0c-0.1,0-0.1,0-0.2,0c-0.1,0-0.3,0-0.4,0c-0.1,0-0.1,0-0.2,0c-0.2,0-0.3,0-0.5,0c0,0-0.1,0-0.1,0s-0.1,0-0.1,0
				c-0.2,0-0.3,0-0.5,0c-0.1,0-0.1,0-0.2,0c-0.1,0-0.3,0-0.4,0c-0.1,0-0.1,0-0.2,0c-0.2,0-0.3,0-0.5,0c0,0-0.1,0-0.1,0
				c-1.7-0.2-3.4-0.5-5-1.1c0,0,0,0-0.1,0c-0.2-0.1-0.3-0.1-0.5-0.2c-0.1,0-0.2-0.1-0.2-0.1c-0.1,0-0.2-0.1-0.3-0.1
				c-0.1,0-0.2-0.1-0.3-0.1c0,0,0,0,0,0c-0.5-0.2-1.1-0.5-1.6-0.8v-5.2c0-3.4,1.7-6.4,4.6-8.3c1.6,0.9,3.4,1.4,5.4,1.4
				s3.8-0.5,5.4-1.4c2.9,1.9,4.6,4.9,4.6,8.3L372,268.7L372,268.7z M342.4,258.4c0.5-0.8,1.2-1.5,2-2c2.4,1.3,5.3,1.3,7.7,0
				c0.2,0.1,0.4,0.3,0.6,0.5c-1.4,1.9-2.2,4.2-2.2,6.7v4.3C346.9,265.6,344.1,262.3,342.4,258.4z M373.5,267.8v-4.3
				c0-2.4-0.8-4.8-2.2-6.7c0.2-0.2,0.4-0.3,0.6-0.5c2.4,1.3,5.3,1.3,7.7,0c0.8,0.5,1.5,1.2,2,2C379.9,262.3,377,265.6,373.5,267.8z"
				/>
			<path id="XMLID_197_" class="st0" d="M362,252c4.2,0,7.7-3.4,7.7-7.7s-3.4-7.7-7.7-7.7s-7.7,3.4-7.7,7.7S357.8,252,362,252z
				 M362,238.2c3.4,0,6.1,2.8,6.1,6.1s-2.8,6.1-6.1,6.1s-6.1-2.8-6.1-6.1C355.9,241,358.6,238.2,362,238.2z"/>
			<path id="XMLID_194_" class="st0" d="M348.2,254.3c3,0,5.4-2.4,5.4-5.4s-2.4-5.4-5.4-5.4c-3,0-5.4,2.4-5.4,5.4
				S345.2,254.3,348.2,254.3z M348.2,245.1c2.1,0,3.8,1.7,3.8,3.8c0,2.1-1.7,3.8-3.8,3.8c-2.1,0-3.8-1.7-3.8-3.8
				C344.4,246.8,346.1,245.1,348.2,245.1z"/>
			<path id="XMLID_191_" class="st0" d="M375.8,254.3c3,0,5.4-2.4,5.4-5.4s-2.4-5.4-5.4-5.4c-3,0-5.4,2.4-5.4,5.4
				S372.8,254.3,375.8,254.3z M375.8,245.1c2.1,0,3.8,1.7,3.8,3.8c0,2.1-1.7,3.8-3.8,3.8c-2.1,0-3.8-1.7-3.8-3.8
				S373.7,245.1,375.8,245.1z"/>
		</g>
	</g>
</g>
</svg>
