<?xml version="1.0" encoding="utf-8"?>
<!-- Generator: Adobe Illustrator 19.0.0, SVG Export Plug-In . SVG Version: 6.00 Build 0)  -->
<svg version="1.1" id="Capa_1" xmlns="http://www.w3.org/2000/svg" xmlns:xlink="http://www.w3.org/1999/xlink" x="0px" y="0px"
	 viewBox="337 225 50 50" style="enable-background:new 337 225 50 50;" xml:space="preserve">
<style type="text/css">
	.st0{fill:#000002;}
</style>
<path id="XMLID_54_" class="st0" d="M378.1,233.5L378.1,233.5l-0.2-0.2c-0.1-0.1-0.2-0.2-0.3-0.3c0,0-0.1-0.1-0.1-0.1
	c-0.2-0.2-0.5-0.4-0.7-0.6c0,0-0.1-0.1-0.1-0.1c-0.2-0.2-0.5-0.4-0.8-0.6c0,0-0.1,0-0.1-0.1c-0.3-0.2-0.5-0.4-0.8-0.6c0,0,0,0-0.1,0
	c-0.3-0.2-0.6-0.4-0.9-0.6c0,0,0,0-0.1,0c-0.3-0.2-0.6-0.4-0.9-0.5c0,0,0,0-0.1,0c-0.3-0.2-0.6-0.3-0.9-0.5c0,0-0.1,0-0.1,0
	c-0.3-0.1-0.6-0.3-0.9-0.4c0,0-0.1,0-0.1-0.1c-0.3-0.1-0.6-0.2-0.9-0.3c0,0,0,0,0,0c0,0,0,0,0,0c0,0-0.1,0-0.1,0
	c-0.3-0.1-0.6-0.2-0.8-0.3c-0.1,0-0.2-0.1-0.2-0.1c-0.3-0.1-0.5-0.2-0.8-0.2c-0.1,0-0.2-0.1-0.3-0.1c-0.3-0.1-0.5-0.1-0.8-0.2
	c-0.1,0-0.2-0.1-0.4-0.1c-0.2,0-0.5-0.1-0.7-0.1c-0.1,0-0.3,0-0.4-0.1c-0.2,0-0.5-0.1-0.7-0.1c-0.1,0-0.3,0-0.4,0
	c-0.3,0-0.5,0-0.8-0.1c-0.1,0-0.2,0-0.4,0c-0.4,0-0.8,0-1.1,0s-0.8,0-1.1,0c-0.1,0-0.2,0-0.4,0c-0.3,0-0.5,0-0.8,0.1
	c-0.1,0-0.3,0-0.4,0c-0.2,0-0.5,0.1-0.7,0.1c-0.1,0-0.3,0-0.4,0.1c-0.2,0-0.5,0.1-0.7,0.1c-0.1,0-0.2,0.1-0.4,0.1
	c-0.3,0.1-0.5,0.1-0.8,0.2c-0.1,0-0.2,0.1-0.3,0.1c-0.3,0.1-0.5,0.1-0.8,0.2c-0.1,0-0.2,0.1-0.2,0.1c-0.3,0.1-0.6,0.2-0.8,0.3
	c0,0-0.1,0-0.1,0c0,0,0,0,0,0c0,0,0,0,0,0c-0.3,0.1-0.6,0.2-0.9,0.3c0,0-0.1,0-0.1,0.1c-0.3,0.1-0.6,0.3-0.9,0.4c0,0-0.1,0-0.1,0
	c-0.3,0.1-0.6,0.3-0.9,0.5c0,0,0,0-0.1,0c-0.3,0.2-0.6,0.3-0.9,0.5c0,0,0,0-0.1,0c-0.3,0.2-0.6,0.4-0.9,0.6c0,0,0,0-0.1,0
	c-0.3,0.2-0.6,0.4-0.8,0.6c0,0-0.1,0-0.1,0.1c-0.3,0.2-0.5,0.4-0.8,0.6c0,0-0.1,0.1-0.1,0.1c-0.2,0.2-0.5,0.4-0.7,0.6
	c0,0-0.1,0.1-0.1,0.1c-0.1,0.1-0.2,0.2-0.3,0.3l-0.2,0.2v0c-4.3,4.2-6.9,10-6.9,16.4c0,12.7,10.3,23,23,23s23-10.3,23-23
	C385,243.5,382.3,237.7,378.1,233.5z M362,266.8L362,266.8L362,266.8L362,266.8z M355.8,257.9c1.6-1.7,3.8-2.6,6.1-2.6
	s4.5,1,6.1,2.6l-6.1,7.7L355.8,257.9z M369.1,256.7c-1.9-1.9-4.4-3-7.1-3s-5.2,1.1-7.1,3l-7.2-9l6.6-5.3l6.9,5.5l0,0.1l0.2,0.1
	l0.4,0.3l0.1-0.1l0.1,0.1l0.4-0.3l0.2-0.1V248l6.9-5.5l6.6,5.3L369.1,256.7z M347.5,234.1C347.5,234.1,347.5,234.1,347.5,234.1
	c1.3-1.2,2.7-2.2,4.2-3c0,0,0,0,0,0c0.3-0.2,0.6-0.3,0.9-0.5c0,0,0.1,0,0.1,0c0.3-0.1,0.5-0.3,0.8-0.4v10.9l-6.1,4.9v-11.9
	C347.4,234.1,347.5,234.1,347.5,234.1z M355.7,229.4c0.2-0.1,0.5-0.1,0.7-0.2c0.1,0,0.2-0.1,0.3-0.1c0.2-0.1,0.5-0.1,0.7-0.2
	c0.1,0,0.2-0.1,0.4-0.1c0.2,0,0.4-0.1,0.7-0.1c0.1,0,0.3,0,0.4-0.1c0.2,0,0.4-0.1,0.7-0.1c0.1,0,0.3,0,0.4,0c0.2,0,0.5,0,0.7-0.1
	c0.1,0,0.2,0,0.3,0c0.1,0,0.2,0,0.3,0V246l-6.1-4.9v-11.5c0.1,0,0.3-0.1,0.4-0.1C355.5,229.5,355.6,229.4,355.7,229.4z M363.4,228.5
	c0.2,0,0.5,0,0.7,0.1c0.1,0,0.3,0,0.4,0c0.2,0,0.4,0.1,0.7,0.1c0.1,0,0.3,0,0.4,0.1c0.2,0,0.4,0.1,0.7,0.1c0.1,0,0.2,0,0.4,0.1
	c0.2,0,0.5,0.1,0.7,0.2c0.1,0,0.2,0.1,0.3,0.1c0.2,0.1,0.5,0.1,0.7,0.2c0.1,0,0.2,0.1,0.3,0.1c0.1,0,0.3,0.1,0.4,0.1v11.5l-6.1,4.9
	v-17.6c0.1,0,0.2,0,0.3,0C363.1,228.5,363.3,228.5,363.4,228.5z M371.3,230.6c0.3,0.1,0.6,0.3,0.9,0.5c0,0,0,0,0,0
	c1.5,0.8,2.9,1.8,4.2,3c0,0,0,0,0,0c0,0,0.1,0.1,0.1,0.1V246l-6.1-4.9v-10.9C370.7,230.3,370.9,230.4,371.3,230.6
	C371.2,230.6,371.3,230.6,371.3,230.6z M362,271.4c-11.8,0-21.5-9.6-21.5-21.5c0-5.4,2-10.4,5.4-14.2v11.5v0.7l15.3,19.2l0,0.2h0v0
	l0.2,0.1l0.4,0.3l0,0l0,0l0.1-0.1l0.1,0.1l0,0l0,0l0.4-0.3l0.1-0.1l0.1-0.1v0v-0.1l15.3-19.2v-0.7v-11.5c3.3,3.8,5.4,8.7,5.4,14.2
	C383.4,261.8,373.8,271.4,362,271.4z"/>
</svg>
