<?xml version="1.0" encoding="utf-8"?>
<!-- Generator: Adobe Illustrator 19.0.0, SVG Export Plug-In . SVG Version: 6.00 Build 0)  -->
<svg version="1.1" id="Capa_1" xmlns="http://www.w3.org/2000/svg" xmlns:xlink="http://www.w3.org/1999/xlink" x="0px" y="0px"
	 viewBox="337 225 50 50" style="enable-background:new 337 225 50 50;" xml:space="preserve">
<style type="text/css">
	.st0{fill:#000002;}
</style>
<g id="XMLID_261_">
	<path id="XMLID_814_" class="st0" d="M362,227.2c-12.7,0-23,10.3-23,23c0,12.7,10.3,23,23,23c12.7,0,23-10.3,23-23
		C385,237.5,374.7,227.2,362,227.2z M362,271.7c-11.8,0-21.5-9.6-21.5-21.5c0-11.8,9.6-21.5,21.5-21.5c11.8,0,21.5,9.6,21.5,21.5
		C383.5,262,373.8,271.7,362,271.7z"/>
	<path id="XMLID_862_" class="st0" d="M373.1,236.6h-0.7c-1.4,0-2.6,1.2-2.6,2.6v1.5l-19,6.1c-0.2-0.9-1-1.7-2-1.7h-0.5
		c-1.1,0-2.1,0.9-2.1,2.1v6.1c0,1.1,0.9,2.1,2.1,2.1h0.5c1,0,1.9-0.7,2-1.7l1,0.3c-0.1,0.2-0.2,0.4-0.3,0.6l-0.1,0.5
		c-0.3,1.1,0.3,2.3,1.4,2.6l7.9,2.3c0.2,0.1,0.4,0.1,0.6,0.1c0.9,0,1.7-0.6,2-1.5l0.1-0.5c0.1-0.2,0.1-0.4,0.1-0.6l6.3,1.9v1.9
		c0,1.4,1.2,2.6,2.6,2.6h0.7c1.4,0,2.6-1.2,2.6-2.6v-22C375.7,237.8,374.6,236.6,373.1,236.6z M362,257.5l-0.1,0.5
		c-0.1,0.3-0.4,0.5-0.7,0.4l-7.9-2.3c-0.3-0.1-0.5-0.4-0.4-0.7l0.1-0.5c0.1-0.3,0.3-0.4,0.6-0.4c0.1,0,0.1,0,0.2,0l7.9,2.3
		c0.1,0,0.3,0.1,0.3,0.3C362.1,257.2,362.1,257.4,362,257.5z M349.4,253.2c0,0.3-0.3,0.6-0.6,0.6h-0.5c-0.3,0-0.6-0.3-0.6-0.6v-6.1
		c0-0.3,0.3-0.6,0.6-0.6h0.5c0.3,0,0.6,0.3,0.6,0.6v0.1V253.2L349.4,253.2z M350.9,252.1v-3.8l18.9-6.1v15.4L350.9,252.1z
		 M374.2,261.2c0,0.6-0.5,1.1-1.1,1.1h-0.7c-0.6,0-1.1-0.5-1.1-1.1v-1.5v-19.5v-1c0-0.6,0.5-1.1,1.1-1.1h0.7c0.6,0,1.1,0.5,1.1,1.1
		V261.2z"/>
</g>
</svg>
