<?xml version="1.0" encoding="utf-8"?>
<!-- Generator: Adobe Illustrator 19.0.0, SVG Export Plug-In . SVG Version: 6.00 Build 0)  -->
<svg version="1.1" id="Capa_1" xmlns="http://www.w3.org/2000/svg" xmlns:xlink="http://www.w3.org/1999/xlink" x="0px" y="0px"
	 viewBox="337 225 50 50" style="enable-background:new 337 225 50 50;" xml:space="preserve">
<style type="text/css">
	.st0{fill:#000002;}
</style>
<g id="XMLID_41_">
	<path id="XMLID_810_" class="st0" d="M362,227c-12.7,0-23,10.3-23,23c0,12.7,10.3,23,23,23s23-10.3,23-23
		C385,237.3,374.7,227,362,227z M362,271.5c-11.8,0-21.5-9.6-21.5-21.5c0-11.8,9.6-21.5,21.5-21.5s21.5,9.6,21.5,21.5
		C383.5,261.8,373.8,271.5,362,271.5z"/>
	<path id="XMLID_242_" class="st0" d="M376.7,246.6c-0.2-0.6-0.7-1-1.2-1l-8.3-1.2l-3.8-7.6c-0.3-0.5-0.8-0.8-1.4-0.8
		c-0.6,0-1.1,0.3-1.4,0.8l-3.7,7.6l-8.4,1.2c-0.6,0.1-1,0.5-1.2,1c-0.2,0.6,0,1.2,0.4,1.6l6,5.8l-1.4,8.4c-0.1,0.6,0.1,1.1,0.6,1.5
		c0.3,0.2,0.6,0.3,0.9,0.3c0.2,0,0.5-0.1,0.7-0.2l7.4-4l7.5,4c0.5,0.3,1.1,0.2,1.6-0.1c0.5-0.3,0.7-0.9,0.6-1.5l-1.5-8.3l6.1-5.9
		C376.7,247.7,376.9,247.1,376.7,246.6z M355.5,254.2c0.1-0.5-0.1-1-0.4-1.3l-5.8-5.6l8-1.2c0.5-0.1,0.9-0.4,1.1-0.8l3.6-7.3
		l3.6,7.3c0.2,0.5,0.6,0.8,1.1,0.8l8,1.2l-5.8,5.6c-0.4,0.3-0.5,0.9-0.4,1.3l1.4,8l-7.2-3.8c-0.2-0.1-0.5-0.2-0.7-0.2
		c-0.2,0-0.5,0.1-0.7,0.2l-7.2,3.8L355.5,254.2z"/>
</g>
</svg>
