<?xml version="1.0" encoding="utf-8"?>
<!-- Generator: Adobe Illustrator 19.0.0, SVG Export Plug-In . SVG Version: 6.00 Build 0)  -->
<svg version="1.1" id="Capa_1" xmlns="http://www.w3.org/2000/svg" xmlns:xlink="http://www.w3.org/1999/xlink" x="0px" y="0px"
	 viewBox="337 225 50 50" style="enable-background:new 337 225 50 50;" xml:space="preserve">
<style type="text/css">
	.st0{fill:#000002;}
</style>
<g id="XMLID_104_">
	<path id="XMLID_117_" class="st0" d="M385,250.1c0-12.7-10.3-23-23-23s-23,10.3-23,23c0,6.5,2.7,12.4,7.1,16.6l0,0l0.7,0.6
		c1.6,1.4,3.4,2.6,5.3,3.5c0.1,0,0.2,0.1,0.2,0.1c0.2,0.1,0.5,0.2,0.7,0.3c0.1,0.1,0.3,0.1,0.5,0.2c0.2,0.1,0.4,0.1,0.5,0.2
		c0.2,0.1,0.4,0.1,0.5,0.2c0.2,0.1,0.3,0.1,0.5,0.2c0.2,0.1,0.4,0.1,0.6,0.2c0.1,0,0.3,0.1,0.4,0.1c0.2,0.1,0.4,0.1,0.6,0.2
		c0.1,0,0.3,0.1,0.4,0.1c0.2,0,0.4,0.1,0.6,0.1c0.2,0,0.3,0.1,0.5,0.1c0.2,0,0.4,0.1,0.6,0.1c0.2,0,0.4,0,0.5,0.1
		c0.2,0,0.4,0,0.5,0.1c0.2,0,0.4,0,0.7,0c0.1,0,0.3,0,0.4,0c0.4,0,0.7,0,1.1,0c0.4,0,0.7,0,1.1,0c0.1,0,0.3,0,0.4,0
		c0.2,0,0.4,0,0.6,0c0.2,0,0.4,0,0.6-0.1c0.2,0,0.3,0,0.5-0.1c0.2,0,0.4-0.1,0.6-0.1c0.1,0,0.3-0.1,0.4-0.1c0.2,0,0.4-0.1,0.6-0.1
		c0.1,0,0.3-0.1,0.4-0.1c0.2-0.1,0.4-0.1,0.7-0.2c0.1,0,0.3-0.1,0.4-0.1c0.2-0.1,0.4-0.1,0.6-0.2c0.1,0,0.3-0.1,0.4-0.1
		c0.2-0.1,0.4-0.1,0.6-0.2c0.1-0.1,0.3-0.1,0.4-0.2c0.2-0.1,0.4-0.1,0.5-0.2c0.2-0.1,0.4-0.2,0.6-0.3c0.1-0.1,0.2-0.1,0.4-0.2
		c1.9-0.9,3.6-2.1,5.2-3.5l0.7-0.6l0,0C382.3,262.5,385,256.6,385,250.1z M340.5,250.1c0-11.8,9.6-21.5,21.5-21.5
		c11.8,0,21.5,9.6,21.5,21.5c0,6.2-2.6,11.7-6.8,15.7c-4.3-3.2-9.3-4.9-14.7-4.9c-5.3,0-10.4,1.7-14.6,4.9
		C343.1,261.8,340.5,256.2,340.5,250.1z M375.2,267c-0.3,0.3-0.7,0.5-1.1,0.8c-0.1,0.1-0.2,0.1-0.3,0.2c-0.4,0.3-0.8,0.5-1.2,0.8
		c-0.1,0.1-0.2,0.1-0.3,0.2c-0.5,0.3-0.9,0.5-1.4,0.7c-0.1,0-0.2,0.1-0.2,0.1c-0.5,0.2-1,0.4-1.5,0.6c0,0-0.1,0-0.1,0
		c-1.1,0.4-2.2,0.7-3.3,0.9c-0.1,0-0.1,0-0.2,0c-0.5,0.1-1.1,0.2-1.6,0.2c-0.1,0-0.2,0-0.3,0c-0.6,0-1.1,0.1-1.7,0.1
		c-0.6,0-1.1,0-1.7-0.1c-0.1,0-0.2,0-0.3,0c-0.5,0-1.1-0.1-1.6-0.2c-0.1,0-0.1,0-0.2,0c-0.6-0.1-1.1-0.2-1.7-0.4c0,0,0,0,0,0
		c-0.6-0.1-1.1-0.3-1.6-0.5c0,0-0.1,0-0.1,0c-0.5-0.2-1-0.4-1.5-0.6c-0.1,0-0.2-0.1-0.3-0.1c-0.5-0.2-0.9-0.4-1.4-0.7
		c-0.1-0.1-0.2-0.1-0.3-0.2c-0.4-0.2-0.9-0.5-1.3-0.8c-0.1-0.1-0.2-0.1-0.3-0.2c-0.4-0.2-0.7-0.5-1-0.8c-0.1-0.1-0.2-0.1-0.2-0.2
		c3.9-2.9,8.6-4.4,13.5-4.4c4.9,0,9.6,1.5,13.5,4.4C375.4,266.8,375.3,266.9,375.2,267z"/>
	<path id="XMLID_99_" class="st0" d="M362,233.2c0.4,0,0.8-0.3,0.8-0.8v-1.5c0-0.4-0.3-0.8-0.8-0.8c-0.4,0-0.8,0.3-0.8,0.8v1.5
		C361.2,232.9,361.6,233.2,362,233.2z"/>
	<path id="XMLID_73_" class="st0" d="M379.2,250.1c0,0.4,0.3,0.8,0.8,0.8h1.5c0.4,0,0.8-0.3,0.8-0.8s-0.3-0.8-0.8-0.8H380
		C379.6,249.3,379.2,249.7,379.2,250.1z"/>
	<path id="XMLID_72_" class="st0" d="M344.7,250.1c0-0.4-0.3-0.8-0.8-0.8h-1.5c-0.4,0-0.8,0.3-0.8,0.8s0.3,0.8,0.8,0.8h1.5
		C344.4,250.8,344.7,250.5,344.7,250.1z"/>
	<path id="XMLID_71_" class="st0" d="M370.6,235.5c0.1,0.1,0.3,0.1,0.4,0.1c0.3,0,0.5-0.1,0.7-0.4l0.8-1.3c0.2-0.4,0.1-0.8-0.3-1
		c-0.4-0.2-0.8-0.1-1,0.3l-0.8,1.3C370.1,234.8,370.3,235.3,370.6,235.5z"/>
	<path id="XMLID_70_" class="st0" d="M379.3,259.6l-1.3-0.8c-0.4-0.2-0.8-0.1-1,0.3c-0.2,0.4-0.1,0.8,0.3,1l1.3,0.8
		c0.1,0.1,0.3,0.1,0.4,0.1c0.3,0,0.5-0.1,0.7-0.4C379.8,260.3,379.7,259.8,379.3,259.6z"/>
	<path id="XMLID_69_" class="st0" d="M344.7,241.4l1.3,0.8c0.1,0.1,0.3,0.1,0.4,0.1c0.3,0,0.5-0.1,0.7-0.4c0.2-0.4,0.1-0.8-0.3-1
		l-1.3-0.8c-0.4-0.2-0.8-0.1-1,0.3C344.2,240.7,344.3,241.1,344.7,241.4z"/>
	<path id="XMLID_68_" class="st0" d="M352.3,235.2c0.1,0.2,0.4,0.4,0.7,0.4c0.1,0,0.3,0,0.4-0.1c0.4-0.2,0.5-0.7,0.3-1l-0.8-1.3
		c-0.2-0.4-0.7-0.5-1-0.3c-0.4,0.2-0.5,0.7-0.3,1L352.3,235.2z"/>
	<path id="XMLID_67_" class="st0" d="M377.4,241.9c0.1,0,0.3,0,0.4-0.1l1.3-0.8c0.4-0.2,0.5-0.7,0.3-1c-0.2-0.4-0.7-0.5-1-0.3
		l-1.3,0.8c-0.4,0.2-0.5,0.7-0.3,1C376.9,241.7,377.1,241.9,377.4,241.9z"/>
	<path id="XMLID_66_" class="st0" d="M346.9,258.7c-0.2-0.4-0.7-0.5-1-0.3l-1.3,0.8c-0.4,0.2-0.5,0.7-0.3,1c0.1,0.2,0.4,0.4,0.7,0.4
		c0.1,0,0.3,0,0.4-0.1l1.3-0.8C346.9,259.6,347.1,259.1,346.9,258.7z"/>
	<path id="XMLID_105_" class="st0" d="M362,252.3c0.8,0,1.6-0.3,2.2-0.9c0.6-0.6,0.9-1.3,0.9-2.2c0-0.5-0.1-1-0.3-1.4l6.5-6.5
		c0.3-0.3,0.3-0.8,0-1.1c-0.3-0.3-0.8-0.3-1.1,0l-6.4,6.4c-1.2-0.8-2.9-0.6-3.9,0.4c-0.6,0.6-0.9,1.3-0.9,2.2c0,0.8,0.3,1.6,0.9,2.2
		C360.4,252,361.2,252.3,362,252.3z M360.9,248.1c0.3-0.3,0.7-0.4,1.1-0.4s0.8,0.2,1.1,0.4c0.3,0.3,0.4,0.7,0.4,1.1
		c0,0.4-0.2,0.8-0.4,1.1c-0.6,0.6-1.6,0.6-2.2,0c-0.3-0.3-0.4-0.7-0.4-1.1C360.5,248.8,360.6,248.4,360.9,248.1z"/>
</g>
</svg>
